<svg width="12" height="6" viewBox="0 0 12 6" fill="none" xmlns="http://www.w3.org/2000/svg">
<path d="M4.44023 5.64844C4.40391 5.64844 4.36875 5.64258 4.33711 5.63086L4.38867 5.99063H4.69687L4.51523 5.64023C4.49062 5.64609 4.46602 5.64844 4.44023 5.64844ZM9.37383 2.23594C9.22617 2.23594 9.0832 2.25352 8.94609 2.28516C8.69531 1.83516 8.21602 1.53164 7.66523 1.53164C7.58437 1.53164 7.50586 1.53867 7.42852 1.55039C7.01367 0.643359 6.09961 0.0140626 5.03906 0.0140626C3.72305 0.0140626 2.6332 0.982031 2.44219 2.24531C1.4918 2.33789 0.75 3.13828 0.75 4.11328C0.75 5.14922 1.58906 5.98945 2.625 5.99063H3.21094L3.36563 5.66719C3.05859 5.56992 2.8582 5.32734 2.90742 5.09531C2.96133 4.84219 3.2918 4.69805 3.64688 4.77305C3.91523 4.83047 4.12031 4.99688 4.18008 5.18438C4.20735 5.14015 4.24544 5.1036 4.29075 5.07818C4.33606 5.05275 4.38711 5.03929 4.43906 5.03906H4.44141C4.43203 5.00156 4.42734 4.96289 4.42734 4.92305C4.42734 4.6875 4.60078 4.49297 4.82695 4.45898V4.16133C4.82695 4.10977 4.86914 4.06758 4.9207 4.06758C4.97227 4.06758 5.01445 4.10977 5.01445 4.16133V4.46953C5.06836 4.48359 5.11758 4.50703 5.16211 4.5375L5.39062 4.28672C5.42578 4.24805 5.48437 4.2457 5.52305 4.28086C5.56172 4.31602 5.56406 4.37461 5.52891 4.41328L5.29453 4.67109L5.29219 4.67344C5.34424 4.75558 5.36945 4.85187 5.36434 4.94898C5.35923 5.04609 5.32404 5.1392 5.26366 5.21542C5.20328 5.29164 5.12068 5.3472 5.02732 5.37439C4.93396 5.40158 4.83445 5.39906 4.74258 5.36719C4.73789 5.43281 4.71211 5.49258 4.67227 5.54063L4.90664 5.99063H9.42188V5.98945C10.4355 5.96367 11.25 5.13398 11.25 4.11328C11.25 3.07617 10.4098 2.23594 9.37383 2.23594ZM3.96328 5.63906L3.91289 5.99063H4.19883L4.12969 5.5043C4.08867 5.5582 4.03242 5.60391 3.96328 5.63906ZM9.3457 0.574219C9.3457 0.723403 9.40497 0.866477 9.51046 0.971966C9.61595 1.07746 9.75902 1.13672 9.9082 1.13672C10.0574 1.13672 10.2005 1.07746 10.306 0.971966C10.4114 0.866477 10.4707 0.723403 10.4707 0.574219C10.4707 0.425035 10.4114 0.28196 10.306 0.176471C10.2005 0.0709819 10.0574 0.0117188 9.9082 0.0117188C9.75902 0.0117188 9.61595 0.0709819 9.51046 0.176471C9.40497 0.28196 9.3457 0.425035 9.3457 0.574219ZM8.57578 1.29258C8.57578 1.32951 8.58306 1.36609 8.59719 1.40021C8.61132 1.43433 8.63204 1.46534 8.65816 1.49145C8.68427 1.51757 8.71528 1.53829 8.7494 1.55242C8.78352 1.56655 8.8201 1.57383 8.85703 1.57383C8.89397 1.57383 8.93054 1.56655 8.96466 1.55242C8.99878 1.53829 9.02979 1.51757 9.05591 1.49145C9.08202 1.46534 9.10274 1.43433 9.11687 1.40021C9.13101 1.36609 9.13828 1.32951 9.13828 1.29258C9.13828 1.25564 9.13101 1.21907 9.11687 1.18495C9.10274 1.15083 9.08202 1.11982 9.05591 1.0937C9.02979 1.06759 8.99878 1.04687 8.96466 1.03274C8.93054 1.0186 8.89397 1.01133 8.85703 1.01133C8.8201 1.01133 8.78352 1.0186 8.7494 1.03274C8.71528 1.04687 8.68427 1.06759 8.65816 1.0937C8.63204 1.11982 8.61132 1.15083 8.59719 1.18495C8.58306 1.21907 8.57578 1.25564 8.57578 1.29258ZM3.55547 5.70586L3.41953 5.99063H3.72422L3.76523 5.70117C3.69844 5.71055 3.62812 5.71289 3.55547 5.70586Z" fill="#54599D"/>
</svg>
