<svg width="12" height="12" viewBox="0 0 12 12" fill="none" xmlns="http://www.w3.org/2000/svg">
<path d="M5.99983 0.42334C2.69552 0.42334 0.00750732 3.11172 0.00750732 6.41603C0.00750732 8.49203 1.05844 10.3909 2.81887 11.495C2.994 11.606 3.22537 11.5522 3.33563 11.3767C3.44589 11.2012 3.39282 10.9698 3.21732 10.86C2.58338 10.4621 2.05669 9.94535 1.65376 9.34966L2.04694 9.1226C2.22637 9.01891 2.28788 8.78979 2.18419 8.61036C2.08013 8.43055 1.85063 8.36943 1.67194 8.47311L1.27819 8.70035C0.992257 8.10843 0.817683 7.4606 0.770996 6.78523H1.18837C1.39556 6.78523 1.56337 6.61741 1.56337 6.41023C1.56337 6.20304 1.39556 6.03523 1.18837 6.03523H0.772871C0.822558 5.34749 1.00462 4.69573 1.29506 4.10641L1.67193 4.32391C1.72878 4.3569 1.79335 4.37424 1.85908 4.37416C1.98863 4.37416 2.11463 4.30685 2.18419 4.18666C2.28787 4.00723 2.22638 3.77791 2.04694 3.6744L1.67382 3.45915C2.05013 2.91034 2.52769 2.43615 3.07988 2.06435L3.29101 2.42998C3.36056 2.55054 3.48656 2.61748 3.61612 2.61748C3.68184 2.61755 3.74641 2.60021 3.80326 2.56723C3.98268 2.46354 4.04419 2.23441 3.94051 2.05498L3.73012 1.69085C4.30819 1.41204 4.94512 1.23785 5.61656 1.1891V1.65635C5.61656 1.86354 5.78437 2.03135 5.99156 2.03135C6.19875 2.03135 6.36656 1.86354 6.36656 1.65635V1.1876C7.05318 1.23541 7.704 1.41484 8.29293 1.70264L8.0895 2.05478C7.98581 2.2342 8.04731 2.46353 8.22674 2.56703C8.28359 2.60001 8.34816 2.61735 8.41388 2.61728C8.54343 2.61728 8.66943 2.55034 8.739 2.42978L8.94149 2.07896C9.48898 2.45174 9.96155 2.92405 10.3346 3.47134L9.98343 3.67421C9.80401 3.77789 9.74249 4.00703 9.84619 4.18644C9.91574 4.30702 10.0417 4.37394 10.1713 4.37394C10.2351 4.37394 10.2996 4.35783 10.3584 4.3237L10.7115 4.11989C10.9997 4.70902 11.1797 5.36 11.2277 6.04684H10.816C10.6088 6.04684 10.441 6.21465 10.441 6.42184C10.441 6.62903 10.6088 6.79684 10.816 6.79684H11.2275C11.1801 7.4634 11.0096 8.10277 10.7295 8.68721L10.3583 8.4729C10.1792 8.36921 9.94914 8.43109 9.84602 8.61016C9.74233 8.78959 9.80383 9.01891 9.98327 9.12241L10.3556 9.33746C9.94428 9.94965 9.40127 10.4788 8.74597 10.8823C8.56954 10.991 8.51497 11.2222 8.62334 11.3983C8.69442 11.5132 8.81704 11.5766 8.94303 11.5766C9.01237 11.5766 9.08035 11.5573 9.13935 11.5209C10.926 10.4205 11.9925 8.51171 11.9925 6.41584C11.9925 3.11171 9.30417 0.42334 5.99985 0.42334H5.99983ZM8.76694 5.24678C8.94619 5.14309 9.00769 4.91399 8.90419 4.73455C8.80069 4.5553 8.57119 4.4938 8.39194 4.59749L6.35494 5.77349C6.24619 5.71199 6.12226 5.67393 5.98838 5.67393C5.57494 5.67393 5.24026 6.00898 5.24026 6.42166C5.24026 6.83473 5.57513 7.16979 5.98838 7.16979C6.40182 7.16979 6.73651 6.83473 6.73651 6.42166C6.73651 6.42091 6.73632 6.41998 6.73632 6.41921L8.76694 5.24678Z" fill="#54599D"/>
</svg>
