<svg width="14" height="14" viewBox="0 0 14 14" fill="none" xmlns="http://www.w3.org/2000/svg">
<path fill-rule="evenodd" clip-rule="evenodd" d="M7.00579 0C3.13177 0 0 3.20832 0 7.17745C0 10.3502 2.00663 13.0358 4.79036 13.9864C5.1384 14.0578 5.26589 13.8319 5.26589 13.6419C5.26589 13.4755 5.25442 12.9052 5.25442 12.3109C3.30557 12.7388 2.89974 11.4553 2.89974 11.4553C2.58655 10.6235 2.1225 10.4097 2.1225 10.4097C1.48465 9.97 2.16896 9.97 2.16896 9.97C2.87651 10.0175 3.24778 10.7067 3.24778 10.7067C3.87402 11.7999 4.88315 11.491 5.28912 11.3009C5.34705 10.8374 5.53276 10.5166 5.72994 10.3384C4.1756 10.172 2.54023 9.55409 2.54023 6.79712C2.54023 6.01283 2.81844 5.37117 3.25926 4.87213C3.1897 4.69392 2.94606 3.95703 3.32895 2.97076C3.32895 2.97076 3.92048 2.78059 5.25427 3.70751C5.82531 3.55039 6.41422 3.47047 7.00579 3.4698C7.59733 3.4698 8.20034 3.55307 8.75717 3.70751C10.0911 2.78059 10.6826 2.97076 10.6826 2.97076C11.0655 3.95703 10.8217 4.69392 10.7522 4.87213C11.2046 5.37117 11.4714 6.01283 11.4714 6.79712C11.4714 9.55409 9.83599 10.16 8.27003 10.3384C8.52529 10.5641 8.74555 10.9919 8.74555 11.6692C8.74555 12.6317 8.73408 13.4042 8.73408 13.6418C8.73408 13.8319 8.86171 14.0578 9.2096 13.9865C11.9933 13.0357 14 10.3502 14 7.17745C14.0114 3.20832 10.8682 0 7.00579 0Z" fill="#54599D"/>
</svg>
