<svg width="12" height="7" viewBox="0 0 12 7" fill="none" xmlns="http://www.w3.org/2000/svg">
<path d="M2.27545e-07 3.99995C-0.000256981 3.33933 0.217547 2.6971 0.619612 2.17292C1.02168 1.64875 1.58552 1.27194 2.22363 1.10098C2.86174 0.930018 3.53844 0.974463 4.14872 1.22742C4.75899 1.48037 5.2687 1.92769 5.59875 2.49995H10.5C10.5493 2.49986 10.5981 2.50949 10.6436 2.52827C10.6892 2.54706 10.7306 2.57465 10.7655 2.60945L11.8905 3.73445C11.9254 3.76928 11.9531 3.81066 11.972 3.85622C11.9909 3.90178 12.0007 3.95062 12.0007 3.99995C12.0007 4.04927 11.9909 4.09811 11.972 4.14367C11.9531 4.18923 11.9254 4.23061 11.8905 4.26545L10.7655 5.39045C10.7307 5.42537 10.6893 5.45308 10.6437 5.47198C10.5982 5.49089 10.5493 5.50062 10.5 5.50062C10.4507 5.50062 10.4018 5.49089 10.3563 5.47198C10.3107 5.45308 10.2693 5.42537 10.2345 5.39045L9.75 4.9052L9.2655 5.39045C9.23067 5.42537 9.18928 5.45308 9.14372 5.47198C9.09817 5.49089 9.04933 5.50062 9 5.50062C8.95067 5.50062 8.90183 5.49089 8.85628 5.47198C8.81072 5.45308 8.76933 5.42537 8.7345 5.39045L8.25 4.9052L7.7655 5.39045C7.73067 5.42537 7.68928 5.45308 7.64372 5.47198C7.59817 5.49089 7.54933 5.50062 7.5 5.50062C7.45067 5.50062 7.40183 5.49089 7.35628 5.47198C7.31072 5.45308 7.26933 5.42537 7.2345 5.39045L6.75 4.9052L6.2655 5.39045C6.23061 5.42525 6.1892 5.45283 6.14365 5.47162C6.09809 5.49041 6.04928 5.50004 6 5.49995H5.59875C5.2687 6.07221 4.75899 6.51953 4.14872 6.77248C3.53844 7.02543 2.86174 7.06988 2.22363 6.89892C1.58552 6.72796 1.02168 6.35115 0.619612 5.82697C0.217547 5.3028 -0.000256981 4.66057 2.27545e-07 3.99995ZM3 1.74995C2.59736 1.7501 2.20213 1.8583 1.85555 2.06325C1.50897 2.26821 1.22375 2.56241 1.02962 2.91517C0.835497 3.26793 0.73959 3.66632 0.751906 4.06877C0.764223 4.47123 0.884311 4.86301 1.09964 5.20323C1.31497 5.54346 1.61766 5.81967 1.97612 6.00305C2.33458 6.18643 2.73569 6.27026 3.13759 6.24579C3.53949 6.22132 3.92746 6.08945 4.26103 5.86394C4.59459 5.63843 4.86153 5.32754 5.034 4.9637C5.06445 4.89977 5.11237 4.84577 5.17223 4.80794C5.23209 4.77011 5.30144 4.75001 5.37225 4.74995H5.84475L6.4845 4.10945C6.51933 4.07453 6.56072 4.04682 6.60628 4.02791C6.65183 4.00901 6.70067 3.99928 6.75 3.99928C6.79933 3.99928 6.84817 4.00901 6.89372 4.02791C6.93928 4.04682 6.98067 4.07453 7.0155 4.10945L7.5 4.5947L7.9845 4.10945C8.01933 4.07453 8.06072 4.04682 8.10628 4.02791C8.15183 4.00901 8.20067 3.99928 8.25 3.99928C8.29933 3.99928 8.34817 4.00901 8.39372 4.02791C8.43928 4.04682 8.48067 4.07453 8.5155 4.10945L9 4.5947L9.4845 4.10945C9.51933 4.07453 9.56072 4.04682 9.60628 4.02791C9.65183 4.00901 9.70067 3.99928 9.75 3.99928C9.79933 3.99928 9.84817 4.00901 9.89372 4.02791C9.93928 4.04682 9.98067 4.07453 10.0155 4.10945L10.5 4.5947L11.0948 3.99995L10.3448 3.24995H5.37225C5.30144 3.24989 5.23209 3.22978 5.17223 3.19196C5.11237 3.15413 5.06445 3.10013 5.034 3.0362C4.85152 2.65123 4.56349 2.32598 4.20342 2.09828C3.84335 1.87058 3.42603 1.74979 3 1.74995Z" fill="#54599D"/>
</svg>
