<svg width="200" height="200" viewBox="0 0 200 200" fill="none" xmlns="http://www.w3.org/2000/svg">
<path d="M0 14.3266C0 6.41875 6.62031 0 14.7813 0H185.219C193.383 0 200 6.41875 200 14.3266V185.676C200 193.586 193.383 200 185.219 200H14.7813C6.62109 200 0 193.587 0 185.678V14.3242V14.3266Z" fill="#4251BC"/>
<path d="M60.7781 167.373V77.3328H30.85V167.373H60.7813H60.7781ZM45.8203 65.0414C56.2547 65.0414 62.7508 58.1273 62.7508 49.4867C62.5555 40.6492 56.2547 33.9281 46.0187 33.9281C35.7758 33.9281 29.0859 40.6492 29.0859 49.4859C29.0859 58.1266 35.5797 65.0406 45.6242 65.0406H45.818L45.8203 65.0414ZM77.3438 167.373H107.27V117.096C107.27 114.409 107.465 111.714 108.255 109.795C110.418 104.416 115.342 98.8477 123.612 98.8477C134.438 98.8477 138.772 107.104 138.772 119.209V167.373H168.697V115.747C168.697 88.0914 153.934 75.2219 134.245 75.2219C118.102 75.2219 111.012 84.2445 107.073 90.3898H107.272V77.3359H77.3453C77.7359 85.7828 77.343 167.377 77.343 167.377L77.3438 167.373Z" fill="white"/>
</svg>
