<svg width="46" height="46" viewBox="0 0 46 46" fill="none" xmlns="http://www.w3.org/2000/svg">
<g clip-path="url(#clip0_4_36)">
<path fill-rule="evenodd" clip-rule="evenodd" d="M29.1346 0C31.6774 0.00187564 33.7354 2.06132 33.7335 4.59906C33.7354 7.1368 31.6755 9.19625 29.1327 9.19812H24.532V4.60094C24.5301 2.0632 26.5899 0.00375127 29.1346 0C29.1327 0 29.1327 0 29.1346 0ZM29.1346 12.2667H41.3995C43.9423 12.2685 46.0021 14.328 46.0003 16.8657C46.004 19.4035 43.9442 21.4629 41.4014 21.4667H29.1346C26.5918 21.4648 24.532 19.4053 24.5339 16.8676C24.532 14.328 26.5918 12.2685 29.1346 12.2667Z" fill="#36C5F0"/>
<path fill-rule="evenodd" clip-rule="evenodd" d="M3.27013e-06 16.8657C-0.00187612 14.328 2.05794 12.2685 4.60076 12.2667C7.14357 12.2685 9.20339 14.328 9.20151 16.8657V21.4667H4.60076C2.05794 21.4648 -0.00187612 19.4053 3.27013e-06 16.8657ZM12.2668 16.8657V4.59906C12.2649 2.0632 14.3229 0.00375127 16.8657 0C19.4085 0.00187564 21.4683 2.06132 21.4664 4.59906V16.8657C21.4702 19.4035 19.4104 21.4629 16.8675 21.4667C14.3247 21.4648 12.2649 19.4053 12.2668 16.8657Z" fill="#2EB67D"/>
<path fill-rule="evenodd" clip-rule="evenodd" d="M16.8675 46C14.3247 45.9981 12.2649 43.9387 12.2668 41.4009C12.2649 38.8632 14.3247 36.8037 16.8675 36.8019H21.4683V41.4009C21.4702 43.9368 19.4104 45.9962 16.8675 46ZM16.8675 33.7314H4.60076C2.05794 33.7296 -0.00187762 31.6701 1.77501e-06 29.1324C-0.00375701 26.5946 2.05606 24.5352 4.59888 24.5314H16.8657C19.4085 24.5333 21.4683 26.5928 21.4664 29.1305C21.4683 31.6701 19.4104 33.7296 16.8675 33.7314Z" fill="#ECB22E"/>
<path fill-rule="evenodd" clip-rule="evenodd" d="M46 29.1324C46.0019 31.6701 43.9421 33.7296 41.3993 33.7314C38.8564 33.7296 36.7966 31.6701 36.7985 29.1324V24.5333H41.3993C43.9421 24.5352 46.0019 26.5946 46 29.1324ZM33.7332 29.1324V41.3991C33.737 43.9368 31.6772 45.9962 29.1343 46C26.5915 45.9981 24.5317 43.9387 24.5336 41.4009V29.1361C24.5298 26.5984 26.5896 24.539 29.1325 24.5352C31.6772 24.5352 33.7351 26.5946 33.7332 29.1324Z" fill="#E01E5A"/>
</g>
<defs>
<clipPath id="clip0_4_36">
<rect width="46" height="46" fill="white" transform="matrix(-1 0 0 1 46 0)"/>
</clipPath>
</defs>
</svg>
