<svg width="10" height="10" viewBox="0 0 10 10" fill="none" xmlns="http://www.w3.org/2000/svg">
<path d="M8.65862 7.20198C8.3653 6.90843 8.02257 6.66883 7.64612 6.49417C8.17698 6.06409 8.51565 5.40784 8.51565 4.67191C8.51565 3.37347 7.43284 2.30823 6.1344 2.32816C4.85589 2.34808 3.82581 3.38987 3.82581 4.67191C3.82581 5.40784 4.16565 6.06409 4.69534 6.49417C4.31883 6.6687 3.97607 6.90831 3.68284 7.20198C3.043 7.843 2.67972 8.68909 2.65628 9.59144C2.65597 9.60394 2.65816 9.61639 2.66273 9.62803C2.6673 9.63968 2.67416 9.65029 2.6829 9.65925C2.69163 9.6682 2.70207 9.67532 2.7136 9.68018C2.72513 9.68503 2.73752 9.68753 2.75003 9.68753H3.40628C3.45667 9.68753 3.49886 9.64769 3.50003 9.5973C3.5223 8.91761 3.79769 8.28128 4.28167 7.79847C4.52933 7.54949 4.82392 7.3521 5.14838 7.21773C5.47284 7.08336 5.82072 7.01468 6.1719 7.01566C6.88558 7.01566 7.55706 7.29339 8.06214 7.79847C8.54495 8.28128 8.82034 8.91761 8.84378 9.5973C8.84495 9.64769 8.88714 9.68753 8.93753 9.68753H9.59378C9.60629 9.68753 9.61868 9.68503 9.63021 9.68018C9.64174 9.67532 9.65218 9.6682 9.66091 9.65925C9.66965 9.65029 9.67651 9.63968 9.68108 9.62803C9.68565 9.61639 9.68784 9.60394 9.68753 9.59144C9.66409 8.68909 9.30081 7.843 8.65862 7.20198ZM6.1719 6.17191C5.77112 6.17191 5.39378 6.01605 5.11136 5.73245C4.96962 5.59183 4.85767 5.42411 4.78216 5.23928C4.70666 5.05445 4.66916 4.85631 4.6719 4.65667C4.67542 4.2723 4.82894 3.90081 5.0973 3.62542C5.37855 3.33714 5.75472 3.17659 6.15667 3.17191C6.55394 3.16839 6.93948 3.32308 7.22308 3.60081C7.5137 3.88558 7.67308 4.26644 7.67308 4.67191C7.67308 5.07269 7.51722 5.44886 7.23362 5.73245C7.09449 5.87225 6.92902 5.98307 6.74677 6.0585C6.56453 6.13394 6.36914 6.17248 6.1719 6.17191ZM3.23636 4.98128C3.22581 4.87933 3.21995 4.7762 3.21995 4.67191C3.21995 4.48558 3.23753 4.30394 3.27034 4.12698C3.27855 4.0848 3.25628 4.04144 3.21761 4.02386C3.05823 3.95237 2.91175 3.85394 2.78519 3.72972C2.63605 3.58512 2.5187 3.41102 2.44061 3.21853C2.36253 3.02604 2.32542 2.81938 2.33167 2.61175C2.34222 2.23558 2.49339 1.87816 2.75706 1.60862C3.04651 1.31214 3.43558 1.15042 3.84925 1.15511C4.22308 1.15862 4.58401 1.30277 4.85706 1.55823C4.94964 1.64495 5.02933 1.74105 5.09612 1.84417C5.11956 1.8805 5.16526 1.89573 5.20511 1.88167C5.41136 1.81019 5.62933 1.7598 5.85315 1.73636C5.91878 1.72933 5.95628 1.65902 5.92698 1.60042C5.54612 0.846906 4.768 0.326593 3.868 0.312531C2.56839 0.292609 1.48558 1.35784 1.48558 2.65511C1.48558 3.39105 1.82425 4.0473 2.35511 4.47737C1.98245 4.64964 1.63909 4.88753 1.34144 5.18519C0.699248 5.8262 0.335967 6.6723 0.312529 7.57581C0.312217 7.58832 0.31441 7.60076 0.318981 7.61241C0.323553 7.62405 0.330409 7.63467 0.339145 7.64362C0.347882 7.65258 0.358323 7.65969 0.369853 7.66455C0.381383 7.66941 0.393768 7.67191 0.406279 7.67191H1.0637C1.11409 7.67191 1.15628 7.63206 1.15745 7.58167C1.17972 6.90198 1.45511 6.26566 1.93909 5.78284C2.28362 5.43831 2.7055 5.19925 3.16605 5.08323C3.21175 5.07151 3.24222 5.02816 3.23636 4.98128Z" fill="#54599D"/>
</svg>
