<svg width="200" height="200" viewBox="0 0 200 200" fill="none" xmlns="http://www.w3.org/2000/svg">
<path d="M137.102 200C61.6268 200 20.352 123.062 20.352 56.344C20.352 54.159 20.3882 51.984 20.4683 49.818C12.4371 42.6676 5.50603 33.8142 1.19209e-07 23.673C7.35244 27.695 15.2642 30.402 23.5642 31.6225C15.0923 25.372 8.58862 15.4835 5.51992 3.6965C13.5749 9.57597 22.3869 13.7207 31.576 15.952C39.0638 6.138 49.724 0 61.5281 0C84.1882 0 102.564 22.611 102.564 50.4825C102.564 54.445 102.203 58.298 101.499 61.995C135.603 59.8835 165.843 39.7925 186.082 9.243C189.727 16.9482 191.645 25.7053 191.638 34.62C191.638 52.137 184.394 67.6005 173.378 76.6475C179.894 76.4026 186.268 74.2369 191.962 70.3325C191.968 70.5445 191.968 70.751 191.968 70.9775C191.968 95.429 177.824 115.844 159.048 120.47C162.575 121.652 166.213 122.25 169.868 122.247C172.508 122.247 175.08 121.927 177.58 121.337C172.356 141.398 157.208 155.996 139.248 156.404C153.293 169.949 170.984 178.016 190.212 178.016C193.483 178.02 196.751 177.786 200 177.317C181.84 191.64 160.276 199.997 137.1 199.997" fill="#4251BC"/>
</svg>
